<svg width="1264" height="573" viewBox="0 0 1264 573" fill="none" xmlns="http://www.w3.org/2000/svg">
<mask id="mask0_323_2852" style="mask-type:alpha" maskUnits="userSpaceOnUse" x="0" y="-691" width="1264" height="1264">
<line x1="236.24" y1="573" x2="236.24" y2="-691" stroke="#D8FE53" stroke-opacity="0.2" stroke-width="1.51923"/>
<line x1="297.01" y1="573" x2="297.01" y2="-691" stroke="#D8FE53" stroke-opacity="0.2" stroke-width="1.51923"/>
<line x1="357.779" y1="573" x2="357.779" y2="-691" stroke="#D8FE53" stroke-opacity="0.2" stroke-width="1.51923"/>
<line x1="418.548" y1="573" x2="418.548" y2="-691" stroke="#D8FE53" stroke-opacity="0.2" stroke-width="1.51923"/>
<line x1="479.317" y1="573" x2="479.317" y2="-691" stroke="#D8FE53" stroke-opacity="0.2" stroke-width="1.51923"/>
<line x1="540.087" y1="573" x2="540.086" y2="-691" stroke="#D8FE53" stroke-opacity="0.2" stroke-width="1.51923"/>
<line x1="600.856" y1="573" x2="600.856" y2="-691" stroke="#D8FE53" stroke-opacity="0.2" stroke-width="1.51923"/>
<line x1="661.625" y1="573" x2="661.625" y2="-691" stroke="#D8FE53" stroke-opacity="0.2" stroke-width="1.51923"/>
<line x1="722.394" y1="573" x2="722.394" y2="-691" stroke="#D8FE53" stroke-opacity="0.2" stroke-width="1.51923"/>
<line x1="783.163" y1="573" x2="783.163" y2="-691" stroke="#D8FE53" stroke-opacity="0.2" stroke-width="1.51923"/>
<line x1="843.933" y1="573" x2="843.933" y2="-691" stroke="#D8FE53" stroke-opacity="0.2" stroke-width="1.51923"/>
<line x1="904.702" y1="573" x2="904.702" y2="-691" stroke="#D8FE53" stroke-opacity="0.2" stroke-width="1.51923"/>
<line x1="965.471" y1="573" x2="965.471" y2="-691" stroke="#D8FE53" stroke-opacity="0.2" stroke-width="1.51923"/>
<line x1="1026.24" y1="573" x2="1026.24" y2="-691" stroke="#D8FE53" stroke-opacity="0.2" stroke-width="1.51923"/>
<line y1="31.3942" x2="1264" y2="31.3942" stroke="#D8FE53" stroke-opacity="0.2" stroke-width="1.51923"/>
<line y1="92.1635" x2="1264" y2="92.1635" stroke="#D8FE53" stroke-opacity="0.2" stroke-width="1.51923"/>
<line y1="152.933" x2="1264" y2="152.933" stroke="#D8FE53" stroke-opacity="0.2" stroke-width="1.51923"/>
<line y1="213.702" x2="1264" y2="213.702" stroke="#D8FE53" stroke-opacity="0.2" stroke-width="1.51923"/>
<line y1="274.471" x2="1264" y2="274.471" stroke="#D8FE53" stroke-opacity="0.2" stroke-width="1.51923"/>
<line y1="335.24" x2="1264" y2="335.24" stroke="#D8FE53" stroke-opacity="0.2" stroke-width="1.51923"/>
</mask>
<g mask="url(#mask0_323_2852)">
<g filter="url(#filter0_i_323_2852)">
<circle cx="631.24" cy="-59.7597" r="344.106" fill="white" fill-opacity="0.5"/>
</g>
</g>
<defs>
<filter id="filter0_i_323_2852" x="287.135" y="-403.865" width="688.212" height="694.289" filterUnits="userSpaceOnUse" color-interpolation-filters="sRGB">
<feFlood flood-opacity="0" result="BackgroundImageFix"/>
<feBlend mode="normal" in="SourceGraphic" in2="BackgroundImageFix" result="shape"/>
<feColorMatrix in="SourceAlpha" type="matrix" values="0 0 0 0 0 0 0 0 0 0 0 0 0 0 0 0 0 0 127 0" result="hardAlpha"/>
<feMorphology radius="75.9615" operator="erode" in="SourceAlpha" result="effect1_innerShadow_323_2852"/>
<feOffset dy="6.07692"/>
<feGaussianBlur stdDeviation="91.1538"/>
<feComposite in2="hardAlpha" operator="arithmetic" k2="-1" k3="1"/>
<feColorMatrix type="matrix" values="0 0 0 0 0.0901961 0 0 0 0 0.0941176 0 0 0 0 0.0705882 0 0 0 1 0"/>
<feBlend mode="normal" in2="shape" result="effect1_innerShadow_323_2852"/>
</filter>
</defs>
</svg>
