<svg width="56" height="24" viewBox="0 0 56 24" fill="none" xmlns="http://www.w3.org/2000/svg">
<g clip-path="url(#clip0_1413_879)">
<path d="M0 1.06954H13.4088V6.00978H9.23434V18.8952H4.17443V6.00978H0V1.06954Z" fill="white"/>
<path d="M17.806 4.43094C17.3 4.94025 16.7012 5.1949 16.0097 5.1949C15.3182 5.1949 14.7025 4.94025 14.1628 4.43094C13.6568 3.88769 13.4038 3.27652 13.4038 2.59745C13.4038 1.9014 13.6568 1.29872 14.1628 0.789421C14.6857 0.26314 15.3013 0 16.0097 0C16.7012 0 17.3 0.26314 17.806 0.789421C18.3288 1.29872 18.5902 1.9014 18.5902 2.59745C18.5902 3.2935 18.3288 3.90466 17.806 4.43094ZM18.3372 18.8952H13.6568V6.16258H18.3372V18.8952Z" fill="white"/>
<path d="M28.1446 12.3761L32.7491 18.8952H27.5627L25.5387 16.0431L23.5148 18.8952H18.3284L22.9582 12.3761L18.5307 6.16258H23.7172L25.5387 8.73456L27.3603 6.16258H32.5467L28.1446 12.3761Z" fill="white"/>
<path d="M36.5197 9.90596C36.5197 10.1436 36.7306 10.3219 37.1522 10.4407C37.5907 10.5596 38.122 10.6784 38.7461 10.7972C39.3701 10.9161 39.9942 11.0943 40.6183 11.332C41.2423 11.5527 41.7652 11.9602 42.1868 12.5543C42.6254 13.1485 42.8446 13.9125 42.8446 14.8462C42.8446 15.6441 42.6675 16.3571 42.3133 16.9853C41.9591 17.5964 41.4784 18.0548 40.8713 18.3604C39.7075 18.9546 38.4678 19.2517 37.1522 19.2517C34.0994 19.2517 32.126 18.2416 31.2321 16.2213L35.3053 14.3878C35.6427 15.2536 36.2414 15.6866 37.1016 15.6866C37.6751 15.6866 37.9618 15.4998 37.9618 15.1263C37.9618 14.9396 37.7931 14.7783 37.4558 14.6425C37.1185 14.5067 36.5703 14.3539 35.8113 14.1841C33.1633 13.5899 31.8477 12.2572 31.8646 10.1861C31.8646 8.79398 32.3875 7.71595 33.4332 6.952C34.4958 6.18804 35.7186 5.80606 37.1016 5.80606C39.8846 5.80606 41.7146 6.88409 42.5916 9.04014L38.7208 10.4407C38.4172 9.7277 37.9449 9.37119 37.304 9.37119C36.7812 9.37119 36.5197 9.54945 36.5197 9.90596Z" fill="#BD99FF"/>
<path d="M49.1438 12.9618L50.6871 6.16258H56L51.6991 18.8697C51.075 20.7202 50.1052 22.0529 48.7896 22.8677C47.474 23.6996 45.7368 24.0731 43.5779 23.9882V19.5318C44.455 19.5318 45.1128 19.4639 45.5513 19.3281C46.0067 19.2092 46.3693 18.9801 46.6392 18.6405L41.5792 6.16258H46.8922L49.1438 12.9618Z" fill="#BD99FF"/>
</g>
<defs>
<clipPath id="clip0_1413_879">
<rect width="56" height="24" fill="white"/>
</clipPath>
</defs>
</svg>
