<svg width="67" height="24" viewBox="0 0 67 24" fill="none" xmlns="http://www.w3.org/2000/svg">
<g clip-path="url(#clip0_131_891)">
<path d="M0.043457 1.33157H16.8466V7.48217H11.6155V23.5244H5.27463V7.48217H0.043457V1.33157Z" fill="white"/>
<path d="M22.991 5.51651C22.3569 6.15059 21.6066 6.46764 20.74 6.46764C19.8735 6.46764 19.102 6.15059 18.4256 5.51651C17.7916 4.84016 17.4745 4.07926 17.4745 3.23382C17.4745 2.36724 17.7916 1.61691 18.4256 0.982827C19.0809 0.327609 19.8523 0 20.74 0C21.6066 0 22.3569 0.327609 22.991 0.982827C23.6462 1.61691 23.9739 2.36724 23.9739 3.23382C23.9739 4.1004 23.6462 4.86129 22.991 5.51651ZM23.6568 23.5244H17.7916V7.67239H23.6568V23.5244Z" fill="white"/>
<path d="M36.5809 15.5984L41.717 23.5244H35.2177L31.4132 17.1836V23.5244H25.5479V1.33157H31.4132V13.823L34.7421 7.67239H41.4L36.5809 15.5984Z" fill="white"/>
<path d="M52.0414 9.09908V1.33157H57.9067V23.5244H52.0414V22.0978C51.0269 23.3448 49.6107 23.9683 47.793 23.9683C45.6583 23.9683 43.9146 23.1757 42.5619 21.5905C41.2092 20.0264 40.5328 18.0291 40.5328 15.5984C40.5328 13.1678 41.2092 11.1704 42.5619 9.60634C43.9146 8.02114 45.6583 7.22854 47.793 7.22854C49.6107 7.22854 51.0269 7.85205 52.0414 9.09908ZM47.159 17.7226C47.7085 18.2933 48.3954 18.5786 49.2197 18.5786C50.0652 18.5786 50.7415 18.2933 51.2488 17.7226C51.7772 17.1519 52.0414 16.4439 52.0414 15.5984C52.0414 14.753 51.7772 14.0449 51.2488 13.4742C50.7415 12.9036 50.0652 12.6182 49.2197 12.6182C48.3954 12.6182 47.7085 12.9036 47.159 13.4742C46.6517 14.0449 46.3981 14.753 46.3981 15.5984C46.3981 16.4439 46.6517 17.1519 47.159 17.7226Z" fill="white"/>
<path d="M65.8785 22.9538C65.181 23.6513 64.325 24 63.3105 24C62.2959 24 61.4294 23.6513 60.7107 22.9538C60.0132 22.2351 59.6645 21.3686 59.6645 20.354C59.6645 19.3395 60.0132 18.4835 60.7107 17.786C61.4294 17.0674 62.2959 16.7081 63.3105 16.7081C64.325 16.7081 65.181 17.0674 65.8785 17.786C66.5971 18.4835 66.9564 19.3395 66.9564 20.354C66.9564 21.3686 66.5971 22.2351 65.8785 22.9538Z" fill="#6100EA"/>
</g>
<defs>
<clipPath id="clip0_131_891">
<rect width="67" height="24" fill="white"/>
</clipPath>
</defs>
</svg>
